<svg xmlns="http://www.w3.org/2000/svg" viewBox="28 24 96 96" width="96" height="96">
  <style>
    svg { color: #11111b; --ground: #ffffff; }
    @media (prefers-color-scheme: dark) { svg { color: #cdd6f4; --ground: #1c1c2c; } }
  </style>
  <path d="M36 31h60a10 10 0 0 1 10 10v6a10 10 0 0 1-10 10H62v14h25a10 10 0 0 1 10 10v5a10 10 0 0 1-10 10H62v16H36z" fill="currentColor"/>
  <circle cx="96" cy="44" r="4" fill="var(--ground)"/>
  <circle cx="87" cy="83.5" r="4" fill="var(--ground)"/>
  <circle cx="52" cy="104" r="4" fill="var(--ground)"/>
  <path d="M96 44h16v59H52M87 83.5h25" fill="none" stroke="currentColor" stroke-width="5" stroke-linecap="round" stroke-linejoin="round"/>
  <circle cx="112" cy="44" r="7" fill="#A6E3A1" stroke="var(--ground)" stroke-width="4"/>
  <circle cx="112" cy="83.5" r="7" fill="#89B4FA" stroke="var(--ground)" stroke-width="4"/>
  <circle cx="112" cy="103" r="7" fill="#CBA6F7" stroke="var(--ground)" stroke-width="4"/>
</svg>
